PathFileType	4	(X/Y/Z)	/Users/itak/Documents/Research/Walk-IL/dataset/trc/00071_00006.trc
DataRate	CameraRate	NumFrames	NumMarkers	Units	OrigDataRate	OrigDataStartFrame	OrigNumFrames
100.000000	100.000000	4	53	mm	100.000000	455	729
Frame#	Time	RPSI			LPSI			L3			STRN			T10			C7			CLAV			RBAK			LBAK			LSHO			LUPA			LAEL			LAOL			LWTS			LWPS			LFRA			LIFD			LHPS			LHTS			RSHO			RUPA			RAEL			RAOL			RWTS			RWPS			RFRA			RIFD			RHTS			RHPS			RBHD			LFHD			RFHD			LBHD			LHIP			RHIP			RASI			LASI			LKNE			LTHI			LANK			LTIP			LTOE			LMT1			LMT5			LHEE			RKNE			RTHI			RANK			RTIP			RTOE			RMT1			RMT5			RHEE			
		X1	Y1	Z1	X2	Y2	Z2	X3	Y3	Z3	X4	Y4	Z4	X5	Y5	Z5	X6	Y6	Z6	X7	Y7	Z7	X8	Y8	Z8	X9	Y9	Z9	X10	Y10	Z10	X11	Y11	Z11	X12	Y12	Z12	X13	Y13	Z13	X14	Y14	Z14	X15	Y15	Z15	X16	Y16	Z16	X17	Y17	Z17	X18	Y18	Z18	X19	Y19	Z19	X20	Y20	Z20	X21	Y21	Z21	X22	Y22	Z22	X23	Y23	Z23	X24	Y24	Z24	X25	Y25	Z25	X26	Y26	Z26	X27	Y27	Z27	X28	Y28	Z28	X29	Y29	Z29	X30	Y30	Z30	X31	Y31	Z31	X32	Y32	Z32	X33	Y33	Z33	X34	Y34	Z34	X35	Y35	Z35	X36	Y36	Z36	X37	Y37	Z37	X38	Y38	Z38	X39	Y39	Z39	X40	Y40	Z40	X41	Y41	Z41	X42	Y42	Z42	X43	Y43	Z43	X44	Y44	Z44	X45	Y45	Z45	X46	Y46	Z46	X47	Y47	Z47	X48	Y48	Z48	X49	Y49	Z49	X50	Y50	Z50	X51	Y51	Z51	X52	Y52	Z52	X53	Y53	Z53	

456	4.55	650.904296875	1008.301147460938	102.7941284179688	820.2752685546875	1001.570190429688	56.01461791992188	738.7686767578125	1059.689819335938	84.72181701660156	809.1868896484375	1258.849487304688	321.2154541015625	737.28759765625	1191.68798828125	65.91131591796875	755.3803100585938	1459.631713867188	118.686653137207	803.2775268554688	1372.913208007812	290.5497131347656	666.9931030273438	1321.280517578125	75.62853240966797	842.3110961914062	1423.36962890625	69.11974334716797	941.5699462890625	1432.516967773438	142.3484344482422	1010.892272949219	1314.982421875	84.92105865478516	1048.9013671875	1105.86181640625	63.4309196472168	944.3724365234375	1084.77978515625	49.13760375976562	1057.1875	860.4320678710938	159.4766693115234	1079.224975585938	855.9080200195312	78.25235748291016	1072.947509765625	997.3888549804688	69.46031188964844	1055.70654296875	676.435791015625	165.4718475341797	1098.7724609375	775.50048828125	104.2491989135742	1078.671997070312	778.96630859375	172.9073181152344	603.9796752929688	1424.1875	222.4501342773438	539.2496337890625	1356.166137695312	224.7238311767578	491.9399719238281	1096.301879882812	199.5674285888672	587.720458984375	1071.81396484375	195.1018676757812	579.1432495117188	860.8762817382812	351.1590881347656	515.8132934570312	834.00537109375	298.7060852050781	488.2976379394531	1013.170776367188	218.8493347167969	619.6109008789062	679.4403076171875	362.3311157226562	593.5532836914062	762.2228393554688	385.8264465332031	528.8541259765625	748.9678344726562	342.9267272949219	848.6012573242188	1660.796875	220.9928588867188	664.2531127929688	1637.812744140625	329.5686645507812	776.5247802734375	1654.017211914062	384.1890869140625	723.8967895507812	1634.515625	169.3602600097656	930.476318359375	939.8355712890625	140.5511016845703	584.47607421875	932.5325317382812	177.61376953125	633.8284912109375	946.7819213867188	297.1240844726562	899.8506469726562	948.6564331054688	259.4732055664062	906.8607177734375	510.0748291015625	346.2973022460938	940.86962890625	635.3250732421875	272.4211730957031	976.091064453125	37.49358367919922	310.5748291015625	953.2955932617188	263.9060363769531	333.4092712402344	930.93994140625	37.56414031982422	510.3545532226562	886.8091430664062	38.05830764770508	455.2391052246094	994.2699584960938	28.77789497375488	417.7694091796875	911.3850708007812	35.88771057128906	245.3297882080078	666.853515625	476.0672912597656	215.6085968017578	618.5465698242188	744.0382690429688	245.0120697021484	605.1276245117188	148.6813812255859	-154.9392852783203	648.7662353515625	375.0398864746094	135.6602783203125	753.3607788085938	33.87677001953125	-67.23976135253906	751.6976318359375	84.0355224609375	-108.7876358032227	659.377197265625	56.28702926635742	-89.58360290527344	631.6761474609375	205.5294647216797	-192.2585754394531	
457	4.56	654.5409545898438	1008.609375	108.9476852416992	824.4025268554688	1002.530334472656	65.02684783935547	743.13134765625	1061.47802734375	92.38525390625	809.7845458984375	1259.994262695312	330.6687927246094	742.7850952148438	1193.536376953125	73.95381927490234	760.479248046875	1461.310424804688	127.4015655517578	804.8138427734375	1374.093872070312	300.0883483886719	672.5220336914062	1323.192260742188	82.63346099853516	848.4678344726562	1424.897094726562	79.53654479980469	946.0914306640625	1433.65625	154.9481658935547	1016.872192382812	1316.188232421875	99.13116455078125	1055.360961914062	1107.015258789062	78.49598693847656	951.2662963867188	1085.940063476562	61.66023635864258	1061.542358398438	861.6431274414062	174.6930084228516	1085.351196289062	857.04150390625	94.02866363525391	1079.241943359375	998.5130004882812	85.02346801757812	1060.046508789062	677.6212768554688	180.9450073242188	1104.412353515625	776.7001342773438	120.5498428344727	1082.926025390625	780.2657470703125	188.7811126708984	607.0883178710938	1426.112548828125	228.3100891113281	542.077392578125	1358.403564453125	229.4946136474609	493.9439392089844	1098.923706054688	203.0372009277344	589.8543090820312	1074.03369140625	200.1301116943359	577.5109252929688	862.0126342773438	354.3727722167969	514.851318359375	836.0175170898438	300.7618713378906	489.6663818359375	1015.758911132812	221.6547546386719	616.8250732421875	680.0933837890625	364.2667236328125	590.8928833007812	762.7872924804688	388.23974609375	526.7178955078125	750.3488159179688	344.3098754882812	852.1144409179688	1662.00439453125	230.8834686279297	666.1168823242188	1639.489013671875	336.8057250976562	777.69189453125	1655.558349609375	393.0350646972656	728.1129150390625	1635.902099609375	177.4745483398438	933.5669555664062	940.9908447265625	150.9310913085938	586.8089599609375	933.1468505859375	183.3993072509766	634.9068603515625	948.4244384765625	303.8878784179688	901.35009765625	949.662841796875	269.3976440429688	907.9953002929688	509.5086669921875	352.0060424804688	942.4624633789062	634.9783325195312	278.8426208496094	975.772216796875	37.75383377075195	310.7104187011719	953.6875	263.3739929199219	336.1651611328125	930.7433471679688	36.47274780273438	511.0337219238281	886.5531005859375	37.61140823364258	455.5693969726562	994.1035766601562	28.6533374786377	418.0956726074219	911.0849609375	36.03882598876953	245.5178833007812	668.6109008789062	476.7798767089844	234.5921020507812	620.0462646484375	745.5276489257812	255.4632263183594	609.94970703125	158.4656829833984	-142.9506072998047	651.4150390625	377.1447448730469	153.9178619384766	749.9600830078125	35.59893417358398	-52.13943481445312	751.8838500976562	88.22304534912109	-92.79080963134766	658.1473999023438	63.01473617553711	-77.76613616943359	639.0868530273438	215.1163940429688	-178.2805023193359	
458	4.57	658.1011352539062	1008.831298828125	114.9605178833008	828.3861694335938	1003.359252929688	73.97378540039062	747.4345092773438	1063.141967773438	99.902587890625	810.1009521484375	1261.062866210938	339.9527893066406	748.3009033203125	1195.32568359375	81.89116668701172	765.35888671875	1462.918701171875	136.0035705566406	806.047607421875	1375.2060546875	309.4862060546875	677.974609375	1324.969970703125	89.48640441894531	854.4263305664062	1426.3994140625	89.86069488525391	950.3092651367188	1434.734252929688	167.5129547119141	1022.566589355469	1317.3251953125	113.4098510742188	1061.653198242188	1108.114868164062	93.75467681884766	958.0856323242188	1087.020141601562	74.15716552734375	1065.633056640625	862.8521118164062	190.0967864990234	1091.327026367188	858.117431640625	110.0664520263672	1085.354248046875	999.5858154296875	100.8145904541016	1064.197631835938	678.8528442382812	196.8553924560547	1109.861083984375	777.859130859375	137.2225189208984	1086.87255859375	781.6021118164062	204.9332885742188	609.9620361328125	1427.875366210938	233.9410400390625	544.74267578125	1360.46240234375	233.9509582519531	495.701416015625	1101.364013671875	206.2202453613281	591.7033081054688	1076.073852539062	204.8248138427734	575.749267578125	863.1857299804688	357.3932800292969	513.5794067382812	837.9462280273438	302.6528625488281	490.7671813964844	1018.196655273438	224.3102416992188	614.1365966796875	680.885498046875	366.2491149902344	588.1883544921875	763.4763793945312	390.5685729980469	524.6246948242188	751.7122802734375	345.6860046386719	855.4160766601562	1663.1103515625	240.6986694335938	667.8450317382812	1641.153198242188	344.0626831054688	778.7625732421875	1657.00390625	401.8167114257812	732.0986938476562	1637.279907226562	185.5912628173828	936.5390014648438	941.988037109375	161.1121520996094	589.5360107421875	933.6931762695312	189.2565155029297	636.0153198242188	950.0184936523438	310.6036682128906	902.80029296875	950.5578002929688	279.11474609375	909.0328369140625	508.87353515625	357.3566589355469	943.9207763671875	634.53076171875	284.9263916015625	975.400146484375	37.97765731811523	310.8305969238281	954.0584716796875	262.827880859375	338.679443359375	930.4701538085938	35.72845077514648	511.6079406738281	886.2633666992188	37.2630500793457	455.8124389648438	993.8661499023438	28.65924453735352	418.3598327636719	910.767333984375	36.15612411499023	245.6711883544922	670.0353393554688	477.9636535644531	253.5271301269531	621.302490234375	747.222412109375	265.848388671875	615.4697265625	167.9264068603516	-130.0618438720703	653.9100952148438	379.61181640625	172.3472595214844	745.8775024414062	37.79045486450195	-34.57387161254883	751.8137817382812	91.86569213867188	-74.7001953125	656.738525390625	70.51792907714844	-63.90871810913086	647.5592651367188	223.6924591064453	-163.7882690429688	
459	4.58	661.5806274414062	1009.093872070312	120.9522705078125	832.2189331054688	1004.135131835938	82.84857177734375	751.6402587890625	1064.69482421875	107.3214874267578	810.1898193359375	1262.103149414062	349.0650024414062	753.771484375	1197.037963867188	89.74150848388672	770.02490234375	1464.455200195312	144.4827270507812	807.010986328125	1376.2919921875	318.7187805175781	683.33984375	1326.615966796875	96.20988464355469	860.1471557617188	1427.861572265625	100.0775985717773	954.2207641601562	1435.777221679688	179.9758148193359	1027.940795898438	1318.407104492188	127.6869888305664	1067.717529296875	1109.171997070312	109.2012176513672	964.7763061523438	1088.026000976562	86.66468811035156	1069.43701171875	864.0615844726562	205.6779937744141	1097.137329101562	859.16796875	126.3675308227539	1091.243774414062	1000.630798339844	116.8423538208008	1068.159790039062	680.125244140625	213.1170654296875	1115.1123046875	779.0079956054688	154.2424011230469	1090.483032226562	782.9683837890625	221.3252868652344	612.6226806640625	1429.4912109375	239.3560333251953	547.268798828125	1362.359497070312	238.1041412353516	497.302978515625	1103.646484375	209.0927581787109	593.3256225585938	1077.952270507812	209.1789398193359	573.8426513671875	864.383056640625	360.2229309082031	512.0707397460938	839.7740478515625	304.3477783203125	491.6727905273438	1020.505310058594	226.7674255371094	611.4652709960938	681.7935791015625	368.3412475585938	585.3849487304688	764.2855834960938	392.8441162109375	522.5248413085938	753.0602416992188	347.0342712402344	858.4882202148438	1664.1455078125	250.4398651123047	669.423095703125	1642.792236328125	351.3351135253906	779.7158203125	1658.344604492188	410.5370178222656	735.8379516601562	1638.665405273438	193.7056579589844	939.3745727539062	942.8746337890625	171.0918121337891	592.4528198242188	934.3011474609375	195.1905364990234	637.1630859375	951.6221923828125	317.2857055664062	904.22802734375	951.3785400390625	288.6375122070312	909.9999389648438	508.1983032226562	362.4285583496094	945.2637329101562	634.0919189453125	290.8225708007812	975.015380859375	38.1386833190918	310.9512329101562	954.4337768554688	262.290771484375	341.0321960449219	930.1867065429688	35.23977279663086	512.0911865234375	885.9862670898438	36.99495315551758	455.9934692382812	993.6163940429688	28.73883438110352	418.5581665039062	910.462646484375	36.25896835327148	245.7987060546875	671.0966186523438	479.6326293945312	272.3476257324219	622.3275146484375	749.160888671875	276.1609802246094	621.644775390625	176.7740478515625	-116.1896362304688	656.1881103515625	382.4116821289062	190.8496551513672	741.4378662109375	40.37740325927734	-14.81550693511963	751.5803833007812	94.91023254394531	-54.77312469482422	655.396240234375	78.4954833984375	-48.16610717773438	656.9251098632812	231.0399780273438	-148.7048797607422	
